<?xml version="1.0" encoding="UTF-8"?>
<svg version="1.1" xmlns="http://www.w3.org/2000/svg" width="561" height="132">
<path d="M0 0 C0.8146875 0.00257812 1.629375 0.00515625 2.46875 0.0078125 C3.2834375 0.00523438 4.098125 0.00265625 4.9375 0 C6.96875 0.1328125 6.96875 0.1328125 7.96875 1.1328125 C8.42334858 3.78744371 8.67118238 6.45470388 8.96875 9.1328125 C10.0515625 7.988125 10.0515625 7.988125 11.15625 6.8203125 C17.41291609 0.84172046 22.74003462 -0.197435 31.15234375 -0.07421875 C37.29865824 0.37759078 41.28690112 2.00305356 45.34375 6.6953125 C46.22325755 7.83768963 47.09884934 8.98310303 47.96875 10.1328125 C48.62875 10.7928125 49.28875 11.4528125 49.96875 12.1328125 C50.505 11.2253125 51.04125 10.3178125 51.59375 9.3828125 C55.02815414 4.25539223 60.01240476 1.45644478 65.96875 0.1328125 C73.41049592 -0.56090958 79.83298272 -0.49392617 85.96875 4.1328125 C91.98074008 9.7450283 93.6877152 16.09102391 94.06207275 24.13909912 C94.09980824 26.312114 94.10744246 28.48291829 94.1015625 30.65625 C94.10251923 31.44303131 94.10347595 32.22981262 94.10446167 33.04043579 C94.10513785 34.68923015 94.10332307 36.33802726 94.09912109 37.98681641 C94.09372144 40.52121848 94.09910707 43.05544681 94.10546875 45.58984375 C94.10480871 47.19531289 94.1035291 48.80078193 94.1015625 50.40625 C94.10358673 51.16658539 94.10561096 51.92692078 94.10769653 52.71029663 C94.08373043 58.01783207 94.08373043 58.01783207 92.96875 59.1328125 C91.28266034 59.20486761 89.59374341 59.21667318 87.90625 59.1953125 C86.98714844 59.18628906 86.06804687 59.17726562 85.12109375 59.16796875 C84.41082031 59.15636719 83.70054687 59.14476562 82.96875 59.1328125 C82.95416748 58.08416016 82.93958496 57.03550781 82.92456055 55.95507812 C82.86622367 52.03352168 82.78899563 48.11251835 82.70629883 44.19140625 C82.67321491 42.50009189 82.64513241 40.80867151 82.62231445 39.1171875 C82.58846164 36.67402311 82.53613492 34.23181595 82.48046875 31.7890625 C82.47407883 31.04289673 82.4676889 30.29673096 82.46110535 29.5279541 C82.29841278 23.60894108 81.39780044 17.48595511 76.96875 13.1953125 C72.86764032 11.01659798 69.55932466 10.82677419 64.96875 11.1328125 C59.79030197 12.80044831 56.91949467 14.54276524 53.96875 19.1328125 C51.80701201 23.44797787 51.62866929 27.5393167 51.5546875 32.27734375 C51.53532135 33.04713058 51.5159552 33.81691742 51.4960022 34.61003113 C51.43649377 37.05501421 51.38993705 39.50004512 51.34375 41.9453125 C51.30554369 43.60874384 51.26649043 45.27215597 51.2265625 46.93554688 C51.13081617 51.00114491 51.04667991 55.06683551 50.96875 59.1328125 C47.33875 59.1328125 43.70875 59.1328125 39.96875 59.1328125 C39.95416748 58.04863037 39.93958496 56.96444824 39.92456055 55.84741211 C39.86631528 51.80102586 39.7890853 47.75518091 39.70629883 43.70922852 C39.67317233 41.96257351 39.64510263 40.21581462 39.62231445 38.46899414 C39.58854119 35.9489338 39.53621653 33.42981498 39.48046875 30.91015625 C39.47407883 30.13695541 39.4676889 29.36375458 39.46110535 28.56712341 C39.32296781 23.40121519 38.35801922 19.73522243 35.96875 15.1328125 C32.79925877 12.16141447 30.06797358 11.21736816 25.71875 10.8828125 C20.28773317 11.24488029 16.4871605 12.57336388 12.65625 16.5078125 C9.3145526 21.70600846 8.65003914 26.17072403 8.5546875 32.27734375 C8.53532135 33.04713058 8.5159552 33.81691742 8.4960022 34.61003113 C8.43649377 37.05501421 8.38993705 39.50004512 8.34375 41.9453125 C8.30554369 43.60874384 8.26649043 45.27215597 8.2265625 46.93554688 C8.13081617 51.00114491 8.04667991 55.06683551 7.96875 59.1328125 C4.33875 59.1328125 0.70875 59.1328125 -3.03125 59.1328125 C-3.05380549 51.58782661 -3.07216769 44.04285319 -3.08306217 36.49784184 C-3.08828989 32.99472365 -3.0953855 29.49162965 -3.10668945 25.98852539 C-3.11959206 21.96500409 -3.12447912 17.94150836 -3.12890625 13.91796875 C-3.13664818 12.02269188 -3.13664818 12.02269188 -3.14454651 10.08912659 C-3.14462204 8.9279985 -3.14469757 7.76687042 -3.14477539 6.57055664 C-3.14810631 5.0283419 -3.14810631 5.0283419 -3.15150452 3.45497131 C-2.99911098 0.51219628 -2.93292059 0.19176788 0 0 Z " fill="#FCFCFC" transform="translate(441.03125,44.8671875)"/>
<path d="M0 0 C2.81165902 3.36080522 5.08596689 6.70470045 7.1796875 10.55078125 C7.77201172 11.63029053 8.36433594 12.7097998 8.97460938 13.82202148 C9.60173828 14.97387939 10.22886719 16.1257373 10.875 17.3125 C12.21235522 19.74949247 13.55455457 22.18378946 14.8984375 24.6171875 C15.23852844 25.2333342 15.57861938 25.8494809 15.92901611 26.48429871 C20.40938338 34.57799159 25.09539098 42.55145875 29.78125 50.52734375 C30.29945313 51.41147949 30.81765625 52.29561523 31.3515625 53.20654297 C32.54412134 55.22746392 33.74881058 57.24124304 34.9609375 59.25048828 C35.60289062 60.32411621 36.24484375 61.39774414 36.90625 62.50390625 C37.49728516 63.48302979 38.08832031 64.46215332 38.69726562 65.47094727 C40 68 40 68 40 71 C13.6 71 -12.8 71 -40 71 C-39.05123696 67.20494784 -37.86386013 64.68752029 -35.97265625 61.30078125 C-35.35052246 60.18276123 -34.72838867 59.06474121 -34.08740234 57.9128418 C-33.41271804 56.71256866 -32.73774434 55.51245816 -32.0625 54.3125 C-31.3717528 53.07796744 -30.6811613 51.84334774 -29.99072266 50.60864258 C-25.2212542 42.09675253 -20.3537631 33.64792074 -15.35107422 25.27099609 C-13.73653565 22.55714756 -12.13559767 19.83546645 -10.53515625 17.11328125 C-9.33593912 15.07551988 -8.13672038 13.03775946 -6.9375 11 C-6.36435059 10.02442139 -5.79120117 9.04884277 -5.20068359 8.04370117 C-4.66910645 7.14240479 -4.1375293 6.2411084 -3.58984375 5.3125 C-3.11409912 4.50425781 -2.63835449 3.69601563 -2.14819336 2.86328125 C-1 1 -1 1 0 0 Z M0 10 C-4.8277072 16.40363231 -8.66460135 23.51224765 -12.5625 30.5 C-13.11357422 31.48097656 -13.66464844 32.46195313 -14.23242188 33.47265625 C-17.50597223 39.30524538 -20.75669394 45.15054735 -24 51 C-15.09983163 48.74739512 -6.46874663 45.84256226 2.1875 42.8125 C3.53438884 42.34406631 4.88139341 41.87596523 6.22851562 41.40820312 C9.48701658 40.27595638 12.74394102 39.13925314 16 38 C11.33064026 28.45155155 6.36742445 19.17341633 1 10 C0.67 10 0.34 10 0 10 Z " fill="#FDFDFD" transform="translate(387,28)"/>
<path d="M0 0 C3.96 0 7.92 0 12 0 C12.33 13.2 12.66 26.4 13 40 C15.495625 37.36 17.99125 34.72 20.5625 32 C21.33408447 31.1853125 22.10566895 30.370625 22.90063477 29.53125 C26.80372272 25.39289244 30.61410582 21.19488873 34.34106445 16.89746094 C36.942657 13.92180571 39.62446951 11.02244283 42.3125 8.125 C43.09850586 7.27421875 43.09850586 7.27421875 43.90039062 6.40625 C49.81760173 0.01172225 49.81760173 0.01172225 53.0390625 -0.1953125 C54.81410156 -0.16050781 54.81410156 -0.16050781 56.625 -0.125 C58.40777344 -0.09792969 58.40777344 -0.09792969 60.2265625 -0.0703125 C61.14179687 -0.04710938 62.05703125 -0.02390625 63 0 C57.1090996 6.9482415 51.0600321 13.74954915 44.82421875 20.390625 C44.28361816 20.9686084 43.74301758 21.5465918 43.18603516 22.14208984 C42.12331913 23.27639937 41.05672435 24.40709039 39.98583984 25.53369141 C37.49821003 28.19180788 35.37154788 30.59987531 34 34 C34.55945312 34.71800781 35.11890625 35.43601563 35.6953125 36.17578125 C65 74.00803859 65 74.00803859 65 77 C60.41138049 77.91918292 56.57096065 78.10402438 52 77 C48.06894216 73.53141955 45.35649812 69.51642666 42.47265625 65.16601562 C39.81505104 61.25715066 36.88753392 57.55269339 34 53.8125 C33.44763672 53.08232666 32.89527344 52.35215332 32.32617188 51.59985352 C31.5459668 50.57009399 31.5459668 50.57009399 30.75 49.51953125 C30.29109375 48.91214111 29.8321875 48.30475098 29.359375 47.67895508 C28.00047698 46.00058911 26.55390682 44.49763483 25 43 C23.18443212 44.78864842 21.37248378 46.58071621 19.5625 48.375 C19.04623047 48.88289063 18.52996094 49.39078125 17.99804688 49.9140625 C14.28179832 53.60602185 12.90983959 55.35591675 12.71875 60.53515625 C12.68136719 61.42654297 12.64398438 62.31792969 12.60546875 63.23632812 C12.53501068 65.12434353 12.46469878 67.0123644 12.39453125 68.90039062 C12.35714844 69.79048828 12.31976563 70.68058594 12.28125 71.59765625 C12.23581055 72.82754272 12.23581055 72.82754272 12.18945312 74.08227539 C12 76 12 76 11 77 C9.33570949 77.09823937 7.66718069 77.12973631 6 77.125 C4.63875 77.12886719 4.63875 77.12886719 3.25 77.1328125 C1 77 1 77 0 76 C-0.09494733 73.62699131 -0.12559319 71.28321297 -0.11352539 68.90991211 C-0.11367142 68.16849472 -0.11381744 67.42707733 -0.1139679 66.66319275 C-0.11326865 64.20121379 -0.10547574 61.73930957 -0.09765625 59.27734375 C-0.09579211 57.57483461 -0.09436819 55.87232493 -0.09336853 54.16981506 C-0.08954302 49.68006927 -0.07971247 45.19035562 -0.06866455 40.70062256 C-0.05845113 36.12268509 -0.05387106 31.54474244 -0.04882812 26.96679688 C-0.03809022 17.97785043 -0.02101341 8.98892788 0 0 Z " fill="#FDFDFD" transform="translate(16,27)"/>
<path d="M0 0 C0.99 0.99 0.99 0.99 2 2 C1.88679697 5.28288776 0.71715137 6.30354487 -1.5625 8.75 C-2.366875 9.4925 -3.17125 10.235 -4 11 C-4.64066406 10.59007813 -5.28132813 10.18015625 -5.94140625 9.7578125 C-14.97141649 4.13256022 -23.01190342 1.38826328 -33.65234375 3.53515625 C-42.04767183 5.84544954 -47.12148819 9.2839496 -51.7421875 16.7109375 C-55.56070679 23.66016826 -56.22698616 31.28812017 -54.2421875 38.91015625 C-51.03030963 48.30553128 -46.51809434 53.04287696 -38 58 C-34.43708747 59.18763751 -31.14952051 59.26070436 -27.4375 59.3125 C-26.77169922 59.34150391 -26.10589844 59.37050781 -25.41992188 59.40039062 C-19.33375942 59.47581495 -14.48597464 57.50676104 -9 55 C-8.96241577 54.00818726 -8.96241577 54.00818726 -8.92407227 52.99633789 C-8.80846898 50.01817695 -8.68558246 47.0403608 -8.5625 44.0625 C-8.52318359 43.02158203 -8.48386719 41.98066406 -8.44335938 40.90820312 C-8.38051758 39.42416992 -8.38051758 39.42416992 -8.31640625 37.91015625 C-8.27974854 36.99371338 -8.24309082 36.07727051 -8.20532227 35.13305664 C-8 33 -8 33 -7 32 C-5.48071962 31.92820036 -3.95832518 31.91607993 -2.4375 31.9375 C-1.61121094 31.94652344 -0.78492188 31.95554688 0.06640625 31.96484375 C0.70449219 31.97644531 1.34257812 31.98804688 2 32 C2.19847749 36.03787195 2.34323514 40.0738422 2.43945312 44.11547852 C2.47957083 45.4883775 2.53408586 46.86093698 2.60351562 48.23266602 C3.16336071 59.58187847 3.16336071 59.58187847 0.39013672 62.96240234 C-1.70288409 64.31015451 -3.65065982 65.1891491 -6 66 C-7.00804687 66.43828125 -8.01609375 66.8765625 -9.0546875 67.328125 C-21.46541343 71.38481658 -32.97055472 72.48153613 -45.1875 66.875 C-55.5011083 61.19672127 -62.32781827 53.28776835 -66.375 42.25 C-68.84642869 29.5066958 -66.75541109 18.52167057 -59.8125 7.6875 C-45.20696848 -11.96301256 -19.46570116 -11.34251433 0 0 Z " fill="#FDFDFD" transform="translate(293,34)"/>
<path d="M0 0 C7.53915536 6.44177358 9.88777311 13.30579478 10.75 22.9375 C10.88899672 24.955269 10.98812032 26.97748407 11 29 C10 30 10 30 8.17137146 30.12025452 C7.37417191 30.11803391 6.57697235 30.11581329 5.75561523 30.11352539 C4.85475693 30.11344986 3.95389862 30.11337433 3.02574158 30.11329651 C2.04658279 30.10813522 1.06742401 30.10297394 0.05859375 30.09765625 C-0.93881332 30.0962413 -1.9362204 30.09482635 -2.96385193 30.09336853 C-6.16343124 30.08775114 -9.36294169 30.07519571 -12.5625 30.0625 C-14.72591045 30.05748724 -16.88932199 30.05292395 -19.05273438 30.04882812 C-24.36851325 30.03777607 -29.68425171 30.02102104 -35 30 C-34.25116679 31.60639541 -33.48954141 33.20683127 -32.72265625 34.8046875 C-32.29992432 35.69655762 -31.87719238 36.58842773 -31.44165039 37.50732422 C-29.12151644 41.51893601 -26.37507751 43.56329963 -22 45 C-12.6721378 46.41061676 -5.69025481 44.12683654 2 39 C3.65 40.65 5.3 42.3 7 44 C4.93996928 48.88997191 1.60988178 50.67451596 -3 53 C-11.05567288 55.8672734 -20.75688097 56.68483432 -28.8125 53.4375 C-36.44659878 49.4380181 -42.02064807 44.16376095 -45 36 C-47.54237295 27.8403571 -46.76493097 18.81528467 -43.18359375 11.14453125 C-39.22928987 3.97980243 -32.8601088 -1.02681935 -25.07421875 -3.6484375 C-16.39712625 -5.11913114 -7.58088206 -4.74304747 0 0 Z M-32.8359375 12.98828125 C-34.44406238 15.49537903 -34.44406238 15.49537903 -35 21 C-23.12 21 -11.24 21 1 21 C-1.07287781 12.70848878 -2.02445735 10.62024402 -8.75 6.1875 C-18.22267507 2.72633026 -26.32307113 5.51764042 -32.8359375 12.98828125 Z " fill="#FCFCFC" transform="translate(160,49)"/>
<path d="M0 0 C3.63 0 7.26 0 11 0 C11 4.95 11 9.9 11 15 C12.21558594 14.98839844 13.43117187 14.97679687 14.68359375 14.96484375 C16.26822764 14.95546722 17.85286318 14.94636687 19.4375 14.9375 C20.23994141 14.92912109 21.04238281 14.92074219 21.86914062 14.91210938 C23.91295221 14.9034857 25.95683902 14.9477185 28 15 C29 16 29 16 29 24 C23.06 24 17.12 24 11 24 C11.09692673 28.78767045 11.19964748 33.57447297 11.31738281 38.36157227 C11.35566618 39.99007549 11.39052024 41.61866309 11.421875 43.24731445 C11.46754002 45.58836014 11.52553077 47.9288253 11.5859375 50.26953125 C11.59748871 50.99775589 11.60903992 51.72598053 11.62094116 52.47627258 C11.72878512 56.16961374 11.89884276 57.84826414 14 61 C18.54854894 61.2982655 22.56151204 61.10962199 27 60 C27.99 62.64 28.98 65.28 30 68 C23.63009643 71.84597951 18.43637769 73.10825301 11 72 C6.6834496 70.46453017 3.27276633 68.04047347 1 64 C-0.21288707 59.92972567 -0.12600696 55.94643325 -0.09765625 51.734375 C-0.0962413 50.94097717 -0.09482635 50.14757935 -0.09336853 49.33013916 C-0.08778415 46.80338728 -0.07523454 44.27672496 -0.0625 41.75 C-0.05748298 40.03385545 -0.05292043 38.31770951 -0.04882812 36.6015625 C-0.03781984 32.40100731 -0.02056596 28.20051883 0 24 C-2.64 24 -5.28 24 -8 24 C-8 21.03 -8 18.06 -8 15 C-5.36 15 -2.72 15 0 15 C0 10.05 0 5.1 0 0 Z " fill="#FCFCFC" transform="translate(188,32)"/>
<path d="M0 0 C0.8146875 0.00257812 1.629375 0.00515625 2.46875 0.0078125 C3.2834375 0.00523438 4.098125 0.00265625 4.9375 0 C6.96875 0.1328125 6.96875 0.1328125 7.96875 1.1328125 C8.42334858 3.78744371 8.67118238 6.45470388 8.96875 9.1328125 C11.94550459 6.03953355 11.94550459 6.03953355 12.96875 2.1328125 C14.52991819 1.79329631 16.09276338 1.46148706 17.65625 1.1328125 C18.52636719 0.9471875 19.39648438 0.7615625 20.29296875 0.5703125 C22.90587964 0.14309203 25.32688038 0.05665049 27.96875 0.1328125 C28.29875 3.1028125 28.62875 6.0728125 28.96875 9.1328125 C29.95875 9.1328125 30.94875 9.1328125 31.96875 9.1328125 C31.96875 10.1228125 31.96875 11.1128125 31.96875 12.1328125 C28.56769629 13.83333936 24.75219581 13.08882013 21.01171875 12.97265625 C17.86208523 13.13842644 15.76958877 13.71238712 12.96875 15.1328125 C11.69385734 16.93208289 11.69385734 16.93208289 10.96875 19.1328125 C10.55625 19.9784375 10.14375 20.8240625 9.71875 21.6953125 C9.47125 22.4996875 9.22375 23.3040625 8.96875 24.1328125 C9.62875 25.1228125 10.28875 26.1128125 10.96875 27.1328125 C10.64729004 27.65842773 10.32583008 28.18404297 9.99462891 28.72558594 C8.68769784 31.79230187 8.645515 34.31809594 8.5546875 37.6484375 C8.49667969 39.52402344 8.49667969 39.52402344 8.4375 41.4375 C8.39109375 43.39042969 8.39109375 43.39042969 8.34375 45.3828125 C8.30507813 46.70023438 8.26640625 48.01765625 8.2265625 49.375 C8.13228818 52.62746411 8.0466825 55.87992246 7.96875 59.1328125 C4.33875 59.1328125 0.70875 59.1328125 -3.03125 59.1328125 C-3.05380549 51.58782661 -3.07216769 44.04285319 -3.08306217 36.49784184 C-3.08828989 32.99472365 -3.0953855 29.49162965 -3.10668945 25.98852539 C-3.11959206 21.96500409 -3.12447912 17.94150836 -3.12890625 13.91796875 C-3.13664818 12.02269188 -3.13664818 12.02269188 -3.14454651 10.08912659 C-3.14462204 8.9279985 -3.14469757 7.76687042 -3.14477539 6.57055664 C-3.14810631 5.0283419 -3.14810631 5.0283419 -3.15150452 3.45497131 C-2.99911098 0.51219628 -2.93292059 0.19176788 0 0 Z " fill="#FDFDFD" transform="translate(309.03125,44.8671875)"/>
<path d="M0 0 C3.3 0 6.6 0 10 0 C10 19.47 10 38.94 10 59 C6.7 59 3.4 59 0 59 C-1.7182309 57.2817691 -1.12754321 55.01402251 -1.12939453 52.66992188 C-1.13254669 51.53204224 -1.13569885 50.3941626 -1.13894653 49.22180176 C-1.1369223 47.98329468 -1.13489807 46.7447876 -1.1328125 45.46875 C-1.13376923 44.20736206 -1.13472595 42.94597412 -1.13571167 41.6463623 C-1.13639375 38.97302862 -1.13503529 36.29978563 -1.13037109 33.62646484 C-1.12467381 30.19293309 -1.12795301 26.7594795 -1.13394356 23.32595062 C-1.13841762 20.06104757 -1.13528883 16.79615407 -1.1328125 13.53125 C-1.13483673 12.29274292 -1.13686096 11.05423584 -1.13894653 9.77819824 C-1.13579437 8.6403186 -1.13264221 7.50243896 -1.12939453 6.33007812 C-1.12859894 5.32271606 -1.12780334 4.315354 -1.12698364 3.27746582 C-1 1 -1 1 0 0 Z " fill="#FCFCFC" transform="translate(93,45)"/>
<path d="M0 0 C2.3125 1.3125 2.3125 1.3125 4.3125 3.3125 C4.66935017 6.59552159 4.60857814 8.68744615 3.1875 11.6875 C1.3125 13.3125 1.3125 13.3125 -1.625 13.8125 C-4.6875 13.3125 -4.6875 13.3125 -7.125 11.75 C-8.6875 9.3125 -8.6875 9.3125 -8.75 5.75 C-7.6875 2.3125 -7.6875 2.3125 -5.4375 0.25 C-2.6875 -0.6875 -2.6875 -0.6875 0 0 Z " fill="#FCFCFC" transform="translate(99.6875,22.6875)"/>
<path d="M0 0 C0.33 0 0.66 0 1 0 C1 10.56 1 21.12 1 32 C3.97 32 6.94 32 10 32 C9.98952637 31.10168457 9.97905273 30.20336914 9.96826172 29.27783203 C9.9342053 25.94935553 9.90911382 22.62106378 9.89013672 19.29248047 C9.88007037 17.85104453 9.8664162 16.40962905 9.84912109 14.96826172 C9.82489988 12.89806066 9.81352359 10.82812924 9.8046875 8.7578125 C9.79421387 7.5114502 9.78374023 6.26508789 9.77294922 4.98095703 C10 2 10 2 12 0 C12.5625 1.9375 12.5625 1.9375 13 4 C12.67 4.33 12.34 4.66 12 5 C11.8415735 7.0708472 11.74875578 9.14678029 11.68359375 11.22265625 C11.64169922 12.48271484 11.59980469 13.74277344 11.55664062 15.04101562 C11.51682404 16.38150736 11.47711186 17.7220022 11.4375 19.0625 C11.39431958 20.40691523 11.35070544 21.7513166 11.30664062 23.09570312 C11.20014642 26.3970234 11.0981354 29.69842236 11 33 C7.37 33 3.74 33 0 33 C0 22.11 0 11.22 0 0 Z " fill="#E8E8E8" transform="translate(306,71)"/>
<path d="M0 0 C0.64453125 1.765625 0.64453125 1.765625 1 4 C0.07421875 5.921875 0.07421875 5.921875 -1.3125 7.75 C-1.98732422 8.67039062 -1.98732422 8.67039062 -2.67578125 9.609375 C-3.11277344 10.06828125 -3.54976563 10.5271875 -4 11 C-4.66 11 -5.32 11 -6 11 C-4.54955729 6.89041233 -2.48889248 3.56741255 0 0 Z " fill="#FAFAFA" transform="translate(383,23)"/>
<path d="M0 0 C2.31 0.33 4.62 0.66 7 1 C7 1.66 7 2.32 7 3 C4.36 3 1.72 3 -1 3 C-0.67 2.01 -0.34 1.02 0 0 Z " fill="#E0E0E0" transform="translate(332,55)"/>
<path d="M0 0 C2.31 0 4.62 0 7 0 C6.34 0.66 5.68 1.32 5 2 C2.375 1.625 2.375 1.625 0 1 C0 0.67 0 0.34 0 0 Z " fill="#FCFCFC" transform="translate(30,0)"/>
<path d="M0 0 C0.33 0.99 0.66 1.98 1 3 C0.67 3.66 0.34 4.32 0 5 C-0.66 5 -1.32 5 -2 5 C-1.34 3.35 -0.68 1.7 0 0 Z " fill="#FDFDFD" transform="translate(357,27)"/>
<path d="M0 0 C2.0625 0.4375 2.0625 0.4375 4 1 C3.34 1.66 2.68 2.32 2 3 C1.01 2.34 0.02 1.68 -1 1 C-0.67 0.67 -0.34 0.34 0 0 Z " fill="#FEFEFE" transform="translate(38,0)"/>
<path d="M0 0 C0.99 0.33 1.98 0.66 3 1 C1.68 1.33 0.36 1.66 -1 2 C-0.67 1.34 -0.34 0.68 0 0 Z " fill="#FBFBFB" transform="translate(33,3)"/>
<path d="M0 0 C3 1 3 1 3 1 Z " fill="#FCFCFC" transform="translate(36,5)"/>
<path d="M0 0 C2 1 2 1 2 1 Z " fill="#FDFDFD" transform="translate(373,36)"/>
<path d="" fill="#FEFEFE" transform="translate(0,0)"/>
<path d="" fill="#FDFDFD" transform="translate(0,0)"/>
<path d="" fill="#FEFEFE" transform="translate(0,0)"/>
<path d="" fill="#FDFDFD" transform="translate(0,0)"/>
<path d="" fill="#FEFEFE" transform="translate(0,0)"/>
<path d="" fill="#FEFEFE" transform="translate(0,0)"/>
<path d="" fill="#FCFCFC" transform="translate(0,0)"/>
<path d="" fill="#FEFEFE" transform="translate(0,0)"/>
<path d="" fill="#FEFEFE" transform="translate(0,0)"/>
<path d="" fill="#FDFDFD" transform="translate(0,0)"/>
<path d="" fill="#FCFCFC" transform="translate(0,0)"/>
<path d="" fill="#FEFEFE" transform="translate(0,0)"/>
<path d="" fill="#FEFEFE" transform="translate(0,0)"/>
<path d="" fill="#FDFDFD" transform="translate(0,0)"/>
<path d="" fill="#F7F7F7" transform="translate(0,0)"/>
<path d="" fill="#FDFDFD" transform="translate(0,0)"/>
<path d="" fill="#FBFBFB" transform="translate(0,0)"/>
</svg>
